<svg width="156" height="169" viewBox="0 0 156 169" fill="none" xmlns="http://www.w3.org/2000/svg">
<path d="M48.1265 129.757C55.4576 134.398 63.5014 136.719 72.2579 136.719C81.2181 136.719 89.262 134.398 96.3894 129.757C103.72 125.115 109.524 118.891 113.801 111.084C118.077 103.067 120.215 94.2054 120.215 84.5C120.215 74.5836 118.077 65.7222 113.801 57.9157C109.524 50.1092 103.72 43.8852 96.3894 39.2435C89.262 34.6018 81.2181 32.2809 72.2579 32.2809C63.5014 32.2809 55.4576 34.6018 48.1265 39.2435C40.7955 43.8852 34.9917 50.1092 30.7152 57.9157C26.6424 65.7222 24.606 74.5836 24.606 84.5C24.606 94.2054 110.339 81.3484 114.412 89.3659L84.171 105.823C76.8399 92.9526 73.1744 78.6056 73.1744 62.7816C73.1744 46.9576 -6.8565 54.4345 0.474572 41.7753C7.80564 28.9051 17.6822 18.7778 30.1043 11.3933C42.7301 3.79775 56.7812 0 72.2579 0C87.9383 0 101.99 3.79775 114.412 11.3933C127.037 18.7778 137.016 28.9051 144.347 41.7753C151.678 54.4345 155.343 68.676 155.343 84.5C155.343 100.324 151.678 114.671 144.347 127.541C137.016 140.2 127.037 150.328 114.412 157.923C101.99 165.308 87.9383 169 72.2579 169C56.7812 169 42.7301 165.308 30.1043 157.923C17.6822 150.328 11.8448 146.504 4.51371 133.844L34.7544 117.387C39.0309 125.194 40.7955 125.115 48.1265 129.757Z" fill="url(#paint0_linear_70_6)"/>
<defs>
<linearGradient id="paint0_linear_70_6" x1="1.98481e-07" y1="84.6577" x2="155.186" y2="84.6577" gradientUnits="userSpaceOnUse">
<stop stop-color="#E9672B"/>
<stop offset="1" stop-color="#E32636"/>
</linearGradient>
</defs>
</svg>
